<?xml version="1.0" encoding="UTF-8"?>
<svg id="Layer_2" xmlns="http://www.w3.org/2000/svg" viewBox="0 0 2084.78 1232.26">
  <defs>
    <style>
      .cls-1 {
        fill: #1a3a52;
      }
    </style>
  </defs>
  <path class="cls-1" d="M789.14,893.45h-16.58v-46.15h16.58c7.67,0,13.64,2.12,17.91,6.37,4.27,4.25,6.4,9.82,6.4,16.71s-2.13,12.46-6.4,16.71c-4.27,4.25-10.24,6.37-17.91,6.37ZM799.84,880.93c2.4-2.54,3.61-6.05,3.61-10.56s-1.2-8.03-3.61-10.56c-2.41-2.54-6.06-3.8-10.95-3.8h-6.82v28.73h6.82c4.9,0,8.55-1.27,10.95-3.8Z"/>
  <path class="cls-1" d="M861.49,884.74v8.71h-33.21v-46.15h33.21v8.71h-23.72v9.69h22.75v8.71h-22.75v10.33h23.72Z"/>
  <path class="cls-1" d="M885.54,847.3l13.52,17.88,13.52-17.88h8.71v46.15h-9.1v-31.46l-13,16.71h-.26l-13-16.71v31.46h-9.1v-46.15h8.71Z"/>
  <path class="cls-1" d="M943.19,893.45h-9.94l17.35-46.15h10.01l17.35,46.15h-10.21l-2.79-7.93h-18.98l-2.79,7.93ZM955.54,859h-.13l-6.37,18h12.87l-6.37-18Z"/>
  <path class="cls-1" d="M999.16,862.96v30.49h-9.23v-46.15h9.56l20.15,30.49v-30.49h9.23v46.15h-9.56l-20.15-30.49Z"/>
  <path class="cls-1" d="M1062.4,893.45h-16.58v-46.15h16.58c7.67,0,13.64,2.12,17.91,6.37,4.27,4.25,6.4,9.82,6.4,16.71s-2.13,12.46-6.4,16.71c-4.27,4.25-10.24,6.37-17.91,6.37ZM1073.1,880.93c2.4-2.54,3.61-6.05,3.61-10.56s-1.2-8.03-3.61-10.56c-2.41-2.54-6.06-3.8-10.95-3.8h-6.82v28.73h6.82c4.9,0,8.55-1.27,10.95-3.8Z"/>
  <path class="cls-1" d="M1135.14,893.45h-9.49v-46.15h30.62v8.71h-21.12v9.69h20.15v8.71h-20.15v19.04Z"/>
  <path class="cls-1" d="M1208.98,853.15c4.51,4.55,6.76,10.29,6.76,17.22s-2.25,12.67-6.76,17.23c-4.51,4.55-10.25,6.82-17.23,6.82s-12.72-2.27-17.22-6.82c-4.51-4.55-6.76-10.29-6.76-17.23s2.25-12.67,6.76-17.22c4.51-4.55,10.25-6.83,17.22-6.83s12.72,2.28,17.23,6.83ZM1201.83,881.26c2.6-2.75,3.9-6.38,3.9-10.89s-1.3-8.13-3.9-10.89c-2.6-2.75-5.96-4.13-10.08-4.13s-7.47,1.38-10.07,4.13c-2.6,2.75-3.9,6.38-3.9,10.89s1.3,8.14,3.9,10.89c2.6,2.75,5.96,4.13,10.07,4.13s7.48-1.38,10.08-4.13Z"/>
  <path class="cls-1" d="M1268.78,893.45h-10.99l-8.65-17.49h-9.1v17.49h-9.49v-46.15h20.93c4.9,0,8.69,1.32,11.38,3.97,2.69,2.64,4.03,6.13,4.03,10.46,0,3.12-.7,5.83-2.11,8.12-1.41,2.3-3.44,3.99-6.08,5.07l10.08,18.53ZM1255.91,865.79c1-.98,1.5-2.33,1.5-4.06s-.51-3.12-1.53-4.16c-1.02-1.04-2.48-1.56-4.39-1.56h-11.44v11.25h11.44c1.95,0,3.42-.49,4.42-1.46Z"/>
  <path class="cls-1" d="M1314.8,884.74v8.71h-33.21v-46.15h33.21v8.71h-23.72v9.69h22.75v8.71h-22.75v10.33h23.72Z"/>
  <path class="cls-1" d="M1334.56,887.66c-4.38-4.42-6.56-10.21-6.56-17.35s2.19-12.94,6.56-17.36c4.38-4.42,9.92-6.63,16.64-6.63,5.85,0,10.82,1.62,14.92,4.88,4.1,3.25,6.58,7.65,7.44,13.2h-10.14c-.69-2.86-2.12-5.08-4.29-6.66-2.17-1.58-4.81-2.37-7.93-2.37-4.16,0-7.4,1.34-9.72,4.03-2.32,2.69-3.48,6.33-3.48,10.92s1.16,8.23,3.48,10.92c2.32,2.69,5.56,4.03,9.72,4.03,3.12,0,5.76-.79,7.93-2.37,2.17-1.58,3.6-3.8,4.29-6.66h10.14c-.87,5.55-3.35,9.94-7.44,13.19-4.09,3.25-9.07,4.88-14.92,4.88-6.72,0-12.26-2.21-16.64-6.63Z"/>
  <path class="cls-1" d="M1391.43,893.45h-9.95l17.35-46.15h10.01l17.35,46.15h-10.21l-2.79-7.93h-18.98l-2.79,7.93ZM1403.78,859h-.13l-6.37,18h12.87l-6.37-18Z"/>
  <path class="cls-1" d="M1453.18,885.91c2.56,0,4.55-.46,5.98-1.4,1.43-.93,2.15-2.24,2.15-3.93,0-1.21-.46-2.21-1.37-2.99-.91-.78-2.09-1.39-3.54-1.82-1.45-.43-3.05-.83-4.81-1.2-1.75-.37-3.51-.84-5.27-1.43-1.75-.58-3.36-1.34-4.81-2.28-1.45-.93-2.63-2.27-3.54-4.03-.91-1.75-1.36-3.85-1.36-6.27,0-4.03,1.52-7.41,4.55-10.14,3.03-2.73,7.13-4.09,12.29-4.09s9.33,1.47,12.38,4.42c3.06,2.95,4.65,6.61,4.78,10.99h-9.29c-.09-2.08-.83-3.76-2.24-5.04-1.41-1.28-3.33-1.92-5.75-1.92-2.21,0-3.99.49-5.33,1.46-1.34.98-2.02,2.22-2.02,3.74,0,1.26.46,2.27,1.37,3.05s2.1,1.39,3.58,1.82c1.47.43,3.1.83,4.88,1.2,1.78.37,3.55.86,5.33,1.46,1.78.61,3.4,1.38,4.88,2.31,1.47.93,2.67,2.29,3.58,4.06.91,1.78,1.36,3.9,1.36,6.37,0,4.16-1.68,7.55-5.04,10.17-3.36,2.62-7.77,3.93-13.23,3.93-3.08,0-5.79-.45-8.12-1.33s-4.18-2.09-5.53-3.61c-1.34-1.52-2.35-3.16-3.02-4.94-.67-1.78-1.05-3.66-1.14-5.66h9.36c.13,2.04.95,3.73,2.47,5.07,1.52,1.34,3.68,2.01,6.5,2.01Z"/>
  <path class="cls-1" d="M1516.23,847.3v8.91h-12.67v37.25h-9.49v-37.25h-12.67v-8.91h34.84Z"/>
  <path class="cls-1" d="M1538.14,847.3v46.15h-9.49v-46.15h9.49Z"/>
  <path class="cls-1" d="M1564.33,862.96v30.49h-9.23v-46.15h9.55l20.15,30.49v-30.49h9.23v46.15h-9.55l-20.15-30.49Z"/>
  <path class="cls-1" d="M1654.36,867.9v25.54h-8.45v-5.59c-2.99,4.2-7.82,6.3-14.5,6.3s-11.94-2.2-16.19-6.6c-4.25-4.4-6.37-10.15-6.37-17.26s2.19-12.94,6.56-17.36c4.38-4.42,9.92-6.63,16.64-6.63,5.68,0,10.53,1.55,14.56,4.65,4.03,3.1,6.54,7.31,7.54,12.64h-10.21c-.74-2.64-2.16-4.68-4.26-6.11-2.1-1.43-4.65-2.14-7.64-2.14-4.16,0-7.4,1.34-9.72,4.03-2.32,2.69-3.48,6.33-3.48,10.92s1.17,8.35,3.51,11.15,5.57,4.19,9.68,4.19c7.45,0,11.83-3.08,13.13-9.23h-10.79v-8.51h19.96Z"/>
  <path class="cls-1" d="M1696.74,858.35c0-3.29,1.19-6.12,3.58-8.48,2.38-2.36,5.7-3.54,9.94-3.54s7.56,1.18,9.95,3.54c2.38,2.36,3.58,5.19,3.58,8.48,0,5.2-3.19,9.23-9.56,12.09l7.35,8.06c.87-1.99,1.3-4.22,1.3-6.69l-.26-3.71h8.38c.13,1.21.2,2.4.2,3.57,0,5.03-1.28,9.43-3.83,13.2l7.86,8.58h-11.18l-2.47-2.73c-3.68,2.47-7.93,3.71-12.74,3.71s-8.92-1.23-12.06-3.71c-3.14-2.47-4.71-5.74-4.71-9.81,0-6.11,2.95-10.46,8.84-13.07-2.77-3.03-4.16-6.2-4.16-9.49ZM1709.09,886.36c2.6,0,4.92-.56,6.96-1.69l-9.75-10.79c-1.91.87-3.27,1.79-4.09,2.76-.82.98-1.24,2.18-1.24,3.61,0,1.78.71,3.24,2.15,4.39,1.43,1.15,3.42,1.72,5.98,1.72ZM1705.25,858.35c0,1.52,1,3.36,2.99,5.52l.52.58,1.89-.84c3.08-1.3,4.61-3.05,4.61-5.26,0-1.3-.47-2.41-1.4-3.32s-2.13-1.37-3.61-1.37-2.73.45-3.64,1.33c-.91.89-1.37,2-1.37,3.35Z"/>
  <path class="cls-1" d="M1785.72,885.91c2.56,0,4.55-.46,5.98-1.4,1.43-.93,2.15-2.24,2.15-3.93,0-1.21-.46-2.21-1.37-2.99-.91-.78-2.09-1.39-3.54-1.82-1.45-.43-3.05-.83-4.81-1.2-1.75-.37-3.51-.84-5.27-1.43-1.75-.58-3.36-1.34-4.81-2.28-1.45-.93-2.63-2.27-3.54-4.03-.91-1.75-1.36-3.85-1.36-6.27,0-4.03,1.52-7.41,4.55-10.14,3.03-2.73,7.13-4.09,12.29-4.09s9.33,1.47,12.38,4.42c3.06,2.95,4.65,6.61,4.78,10.99h-9.29c-.09-2.08-.83-3.76-2.24-5.04-1.41-1.28-3.33-1.92-5.75-1.92-2.21,0-3.99.49-5.33,1.46-1.34.98-2.02,2.22-2.02,3.74,0,1.26.46,2.27,1.37,3.05s2.1,1.39,3.58,1.82c1.47.43,3.1.83,4.88,1.2,1.78.37,3.55.86,5.33,1.46,1.78.61,3.4,1.38,4.88,2.31,1.47.93,2.67,2.29,3.58,4.06.91,1.78,1.36,3.9,1.36,6.37,0,4.16-1.68,7.55-5.04,10.17-3.36,2.62-7.77,3.93-13.23,3.93-3.08,0-5.79-.45-8.12-1.33s-4.18-2.09-5.53-3.61c-1.34-1.52-2.35-3.16-3.02-4.94-.67-1.78-1.05-3.66-1.14-5.66h9.36c.13,2.04.95,3.73,2.47,5.07,1.52,1.34,3.68,2.01,6.5,2.01Z"/>
  <path class="cls-1" d="M1820.43,858.35c0-3.29,1.19-6.12,3.58-8.48,2.38-2.36,5.7-3.54,9.94-3.54s7.56,1.18,9.95,3.54c2.38,2.36,3.58,5.19,3.58,8.48,0,5.2-3.19,9.23-9.56,12.09l7.35,8.06c.87-1.99,1.3-4.22,1.3-6.69l-.26-3.71h8.38c.13,1.21.2,2.4.2,3.57,0,5.03-1.28,9.43-3.83,13.2l7.86,8.58h-11.18l-2.47-2.73c-3.68,2.47-7.93,3.71-12.74,3.71s-8.92-1.23-12.06-3.71c-3.14-2.47-4.71-5.74-4.71-9.81,0-6.11,2.95-10.46,8.84-13.07-2.77-3.03-4.16-6.2-4.16-9.49ZM1832.78,886.36c2.6,0,4.92-.56,6.96-1.69l-9.75-10.79c-1.91.87-3.27,1.79-4.09,2.76-.82.98-1.24,2.18-1.24,3.61,0,1.78.71,3.24,2.15,4.39,1.43,1.15,3.42,1.72,5.98,1.72ZM1828.95,858.35c0,1.52,1,3.36,2.99,5.52l.52.58,1.89-.84c3.08-1.3,4.61-3.05,4.61-5.26,0-1.3-.47-2.41-1.4-3.32s-2.13-1.37-3.61-1.37-2.73.45-3.64,1.33c-.91.89-1.37,2-1.37,3.35Z"/>
  <path class="cls-1" d="M1908.64,853.15c4.51,4.55,6.76,10.29,6.76,17.22s-2.25,12.67-6.76,17.23c-4.51,4.55-10.25,6.82-17.23,6.82s-12.72-2.27-17.22-6.82c-4.51-4.55-6.76-10.29-6.76-17.23s2.25-12.67,6.76-17.22c4.51-4.55,10.25-6.83,17.22-6.83s12.72,2.28,17.23,6.83ZM1901.49,881.26c2.6-2.75,3.9-6.38,3.9-10.89s-1.3-8.13-3.9-10.89c-2.6-2.75-5.96-4.13-10.08-4.13s-7.47,1.38-10.08,4.13c-2.6,2.75-3.9,6.38-3.9,10.89s1.3,8.14,3.9,10.89c2.6,2.75,5.96,4.13,10.08,4.13s7.48-1.38,10.08-4.13Z"/>
  <path class="cls-1" d="M1939.71,875.96v17.49h-9.49v-46.15h19.76c5.29,0,9.23,1.32,11.83,3.97,2.6,2.64,3.9,6.11,3.9,10.4s-1.33,7.69-4,10.33c-2.67,2.64-6.58,3.96-11.73,3.96h-10.27ZM1939.71,867.25h10.27c2.08,0,3.64-.5,4.68-1.5,1.04-1,1.56-2.36,1.56-4.09s-.52-3.11-1.56-4.13c-1.04-1.02-2.6-1.53-4.68-1.53h-10.27v11.25Z"/>
  <path class="cls-1" d="M1083.28,813.74h-42.25l-33.25-67.25h-35v67.25h-36.5v-177.5h80.5c18.83,0,33.41,5.09,43.75,15.25,10.33,10.17,15.5,23.59,15.5,40.25,0,12-2.71,22.42-8.12,31.25-5.42,8.84-13.21,15.34-23.38,19.5l38.75,71.25ZM1033.78,707.36c3.83-3.75,5.75-8.96,5.75-15.62s-1.96-12-5.88-16c-3.92-4-9.54-6-16.88-6h-44v43.25h44c7.5,0,13.16-1.88,17-5.62Z"/>
  <path class="cls-1" d="M1349.28,791.49c-16.84-17-25.25-39.25-25.25-66.75s8.41-49.75,25.25-66.75c16.83-17,38.16-25.5,64-25.5,22.5,0,41.62,6.25,57.38,18.75s25.29,29.42,28.62,50.75h-39c-2.67-11-8.17-19.54-16.5-25.62-8.34-6.08-18.5-9.12-30.5-9.12-16,0-28.46,5.17-37.38,15.5-8.92,10.34-13.38,24.34-13.38,42s4.46,31.67,13.38,42c8.91,10.34,21.38,15.5,37.38,15.5,12,0,22.16-3.04,30.5-9.12,8.33-6.08,13.83-14.62,16.5-25.62h39c-3.34,21.34-12.88,38.25-28.62,50.75s-34.88,18.75-57.38,18.75c-25.84,0-47.17-8.5-64-25.5Z"/>
  <path class="cls-1" d="M1540.28,813.74h-38.25l66.75-177.5h38.5l66.75,177.5h-39.25l-10.75-30.5h-73l-10.75,30.5ZM1587.78,681.24h-.5l-24.5,69.25h49.5l-24.5-69.25Z"/>
  <path class="cls-1" d="M1750.03,784.74c9.83,0,17.5-1.79,23-5.38,5.5-3.58,8.25-8.62,8.25-15.12,0-4.66-1.75-8.5-5.25-11.5s-8.04-5.33-13.62-7c-5.59-1.66-11.75-3.21-18.5-4.62-6.75-1.41-13.5-3.25-20.25-5.5s-12.92-5.16-18.5-8.75c-5.59-3.58-10.12-8.75-13.62-15.5s-5.25-14.79-5.25-24.12c0-15.5,5.83-28.5,17.5-39,11.66-10.5,27.41-15.75,47.25-15.75s35.88,5.67,47.62,17c11.75,11.34,17.88,25.42,18.38,42.25h-35.75c-.34-8-3.21-14.46-8.62-19.38-5.42-4.91-12.79-7.38-22.12-7.38-8.5,0-15.34,1.88-20.5,5.62-5.17,3.75-7.75,8.54-7.75,14.38,0,4.84,1.75,8.75,5.25,11.75s8.08,5.34,13.75,7c5.66,1.67,11.91,3.21,18.75,4.62,6.83,1.42,13.66,3.29,20.5,5.62,6.83,2.34,13.08,5.29,18.75,8.88,5.66,3.59,10.25,8.79,13.75,15.62,3.5,6.84,5.25,15,5.25,24.5,0,16-6.46,29.04-19.38,39.12-12.92,10.09-29.88,15.12-50.88,15.12-11.84,0-22.25-1.71-31.25-5.12s-16.09-8.04-21.25-13.88c-5.17-5.83-9.04-12.16-11.62-19-2.59-6.83-4.04-14.08-4.38-21.75h36c.5,7.84,3.66,14.34,9.5,19.5,5.83,5.17,14.16,7.75,25,7.75Z"/>
  <path class="cls-1" d="M1964.78,636.24v34.25h-48.75v143.25h-36.5v-143.25h-48.75v-34.25h134Z"/>
  <path class="cls-1" d="M1282.5,723.34c-.31,51.33-41.76,92.86-92.84,92.86s-92.86-41.85-92.86-93.46,41.57-93.46,92.86-93.46v94.06h92.84Z"/>
  <path class="cls-1" d="M1309.91,710.65c0,.23,0,.47-.01.7h-108.19v-109.61c59.76,0,108.2,48.76,108.2,108.91Z"/>
  <path class="cls-1" d="M908.69,691.49c0,16.33-5.12,29.58-15.37,39.75-.16.16-.32.31-.48.46,0,0-21.64,0-21.64,0,0-15.15.18-30.29.12-45.44-.03-9.13-.12-18.29-.12-27.43v-13.86c0-.37.24-5.94,0-6.01,9.22,2.47,16.72,6.65,22.49,12.52,10,10.16,15,23.5,15,40Z"/>
  <rect class="cls-1" x="821.69" y="636.24" width="37.5" height="110.25"/>
  <rect class="cls-1" x="772.19" y="636.24" width="37.5" height="173.66"/>
</svg>